<svg xmlns="http://www.w3.org/2000/svg" xmlns:xlink="http://www.w3.org/1999/xlink" version="1.1" width="256" height="256" viewBox="0 0 256 256" xml:space="preserve">

<defs>
</defs>
<g style="stroke: none; stroke-width: 0; stroke-dasharray: none; stroke-linecap: butt; stroke-linejoin: miter; stroke-miterlimit: 10; fill: none; fill-rule: nonzero; opacity: 1;" transform="translate(1.4065934065934016 1.4065934065934016) scale(2.81 2.81)" >
	<path d="M 23.226 13.308 l 1.264 2.13 C 30.314 11.385 37.382 9 45 9 c 19.85 0 36 16.15 36 36 c 0 7.618 -2.385 14.685 -6.438 20.51 l 2.132 1.265 c 2.265 1.344 3.531 3.777 3.482 6.276 C 86.319 65.356 90 55.611 90 45 C 90 20.147 69.853 0 45 0 C 34.389 0 24.644 3.681 16.95 9.825 C 19.449 9.775 21.882 11.042 23.226 13.308 z" style="stroke: none; stroke-width: 1; stroke-dasharray: none; stroke-linecap: butt; stroke-linejoin: miter; stroke-miterlimit: 10; fill: rgb(38,185,153); fill-rule: nonzero; opacity: 1;" transform=" matrix(1 0 0 1 0 0) " stroke-linecap="round" />
	<path d="M 50.74 49.251 H 36.523 v -3.635 c 1.204 -1.097 2.285 -2.134 3.242 -3.111 c 0.958 -0.977 1.8 -1.905 2.528 -2.782 c 0.944 -1.146 1.629 -2.154 2.053 -3.021 c 0.425 -0.867 0.637 -1.76 0.637 -2.677 c 0 -1.037 -0.269 -1.832 -0.806 -2.386 c -0.537 -0.553 -1.287 -0.83 -2.248 -0.83 c -0.494 0 -0.959 0.07 -1.397 0.209 s -0.882 0.319 -1.332 0.539 c -0.442 0.229 -0.819 0.463 -1.131 0.703 c -0.312 0.239 -0.546 0.418 -0.702 0.538 h -0.377 v -4.861 c 0.546 -0.299 1.399 -0.606 2.56 -0.92 s 2.279 -0.471 3.353 -0.471 c 2.296 0 4.036 0.588 5.217 1.765 c 1.184 1.176 1.774 2.832 1.774 4.966 c 0 1.316 -0.269 2.605 -0.806 3.866 c -0.537 1.262 -1.43 2.615 -2.678 4.061 c -0.779 0.888 -1.538 1.678 -2.273 2.371 c -0.737 0.693 -1.27 1.184 -1.599 1.473 h 8.2 V 49.251 z" style="stroke: none; stroke-width: 1; stroke-dasharray: none; stroke-linecap: butt; stroke-linejoin: miter; stroke-miterlimit: 10; fill: rgb(38,185,153); fill-rule: nonzero; opacity: 1;" transform=" matrix(1 0 0 1 0 0) " stroke-linecap="round" />
	<path d="M 67.907 44.061 h -2.612 v 5.25 h -4.691 v -5.25 h -8.512 v -4.158 l 8.356 -12.923 h 4.847 v 13.073 h 2.612 V 44.061 z M 60.604 40.052 v -7.583 l -4.899 7.583 H 60.604 z" style="stroke: none; stroke-width: 1; stroke-dasharray: none; stroke-linecap: butt; stroke-linejoin: miter; stroke-miterlimit: 10; fill: rgb(38,185,153); fill-rule: nonzero; opacity: 1;" transform=" matrix(1 0 0 1 0 0) " stroke-linecap="round" />
	<path d="M 41.765 66.527 c 0.819 0.819 2.078 1.004 3.098 0.457 l 5.212 -2.798 c 9.893 2.064 17.837 6.602 23.55 13.974 c 0.014 -0.032 0.027 -0.062 0.041 -0.094 c -1.172 2.701 -2.414 5.607 -3.045 7.216 c -0.208 0.53 -0.518 1.016 -0.948 1.389 C 59.015 95.91 37.81 84.653 21.578 68.422 C 5.347 52.19 -5.91 30.985 3.329 20.327 c 0.373 -0.43 0.859 -0.74 1.389 -0.948 c 1.609 -0.631 4.515 -1.874 7.216 -3.045 c -0.032 0.014 -0.062 0.027 -0.094 0.041 c 7.372 5.713 11.911 13.657 13.975 23.55 l -2.798 5.212 c -0.548 1.02 -0.362 2.279 0.457 3.098 l 9.146 9.146 L 41.765 66.527 z" style="stroke: none; stroke-width: 1; stroke-dasharray: none; stroke-linecap: butt; stroke-linejoin: miter; stroke-miterlimit: 10; fill: rgb(105,188,69); fill-rule: nonzero; opacity: 1;" transform=" matrix(1 0 0 1 0 0) " stroke-linecap="round" />
	<path d="M 50.075 64.185 l 5.748 -3.086 c 0.811 -0.435 1.79 -0.414 2.581 0.055 l 15.992 9.49 c 1.141 0.677 1.6 2.093 1.066 3.308 c -0.504 1.147 -1.16 2.646 -1.838 4.208 L 50.075 64.185 z" style="stroke: none; stroke-width: 1; stroke-dasharray: none; stroke-linecap: butt; stroke-linejoin: miter; stroke-miterlimit: 10; fill: rgb(71,160,71); fill-rule: nonzero; opacity: 1;" transform=" matrix(1 0 0 1 0 0) " stroke-linecap="round" />
	<path d="M 25.815 39.925 l 3.086 -5.748 c 0.435 -0.811 0.414 -1.79 -0.055 -2.581 l -9.49 -15.992 c -0.677 -1.141 -2.093 -1.6 -3.308 -1.066 c -1.147 0.504 -2.646 1.16 -4.208 1.838 L 25.815 39.925 z" style="stroke: none; stroke-width: 1; stroke-dasharray: none; stroke-linecap: butt; stroke-linejoin: miter; stroke-miterlimit: 10; fill: rgb(71,160,71); fill-rule: nonzero; opacity: 1;" transform=" matrix(1 0 0 1 0 0) " stroke-linecap="round" />
</g>
</svg>